<mxfile host="65bd71144e">
    <diagram id="pJ6ETb8NZ847FZXre5uN" name="Page-1">
        <mxGraphModel dx="1010" dy="516" grid="1" gridSize="10" guides="1" tooltips="1" connect="1" arrows="1" fold="1" page="1" pageScale="1" pageWidth="1169" pageHeight="827" math="0" shadow="0">
            <root>
                <mxCell id="0"/>
                <mxCell id="1" parent="0"/>
                <mxCell id="44" value="" style="rounded=0;whiteSpace=wrap;html=1;fillColor=none;" parent="1" vertex="1">
                    <mxGeometry x="20" y="10" width="280" height="670" as="geometry"/>
                </mxCell>
                <mxCell id="45" value="Informacion General" style="text;html=1;strokeColor=none;fillColor=none;align=left;verticalAlign=middle;whiteSpace=wrap;rounded=0;fontStyle=1;fontSize=14;" parent="1" vertex="1">
                    <mxGeometry x="30" y="31" width="180" height="30" as="geometry"/>
                </mxCell>
                <mxCell id="47" value="Telefono: 123-456-78-90" style="text;html=1;strokeColor=none;fillColor=none;align=left;verticalAlign=middle;whiteSpace=wrap;rounded=0;" parent="1" vertex="1">
                    <mxGeometry x="40" y="71" width="160" height="19" as="geometry"/>
                </mxCell>
                <mxCell id="48" value="Email: something@mail.com" style="text;html=1;strokeColor=none;fillColor=none;align=left;verticalAlign=middle;whiteSpace=wrap;rounded=0;" parent="1" vertex="1">
                    <mxGeometry x="40" y="101" width="190" height="19" as="geometry"/>
                </mxCell>
                <mxCell id="50" value="Ubicacion: Tlaxco, Tlaxcala, centro" style="text;html=1;strokeColor=none;fillColor=none;align=left;verticalAlign=middle;whiteSpace=wrap;rounded=0;" parent="1" vertex="1">
                    <mxGeometry x="40" y="130" width="190" height="19" as="geometry"/>
                </mxCell>
                <mxCell id="51" value="Calle: Alguna calle de la predera larga #2345 (&lt;u&gt;&lt;font color=&quot;#3399ff&quot;&gt;mapa&lt;/font&gt;&lt;/u&gt;)" style="text;html=1;strokeColor=none;fillColor=none;align=left;verticalAlign=middle;whiteSpace=wrap;rounded=0;" parent="1" vertex="1">
                    <mxGeometry x="40" y="160" width="230" height="30" as="geometry"/>
                </mxCell>
                <mxCell id="54" value="Horario" style="text;html=1;strokeColor=none;fillColor=none;align=left;verticalAlign=middle;whiteSpace=wrap;rounded=0;fontStyle=1;fontSize=14;" parent="1" vertex="1">
                    <mxGeometry x="30" y="210" width="230" height="30" as="geometry"/>
                </mxCell>
                <mxCell id="59" value="Lunes a Viernes: 12:00 a 18:00" style="text;html=1;strokeColor=none;fillColor=none;align=left;verticalAlign=middle;whiteSpace=wrap;rounded=0;" vertex="1" parent="1">
                    <mxGeometry x="40" y="240" width="210" height="19" as="geometry"/>
                </mxCell>
                <mxCell id="60" value="Domingo y sabado: 14:00 a 20:00" style="text;html=1;strokeColor=none;fillColor=none;align=left;verticalAlign=middle;whiteSpace=wrap;rounded=0;" vertex="1" parent="1">
                    <mxGeometry x="40" y="265" width="210" height="19" as="geometry"/>
                </mxCell>
                <mxCell id="61" value="Sobre Nosotros" style="text;html=1;strokeColor=none;fillColor=none;align=left;verticalAlign=middle;whiteSpace=wrap;rounded=0;fontStyle=1;fontSize=14;" vertex="1" parent="1">
                    <mxGeometry x="30" y="310" width="230" height="30" as="geometry"/>
                </mxCell>
                <mxCell id="62" value="Descripcion: Alguna descripcion. para hacer relleno nadamas" style="text;html=1;strokeColor=none;fillColor=none;align=left;verticalAlign=middle;whiteSpace=wrap;rounded=0;" vertex="1" parent="1">
                    <mxGeometry x="40" y="344" width="230" height="36" as="geometry"/>
                </mxCell>
                <mxCell id="63" value="Fundador: Mario" style="text;html=1;strokeColor=none;fillColor=none;align=left;verticalAlign=middle;whiteSpace=wrap;rounded=0;" vertex="1" parent="1">
                    <mxGeometry x="40" y="382" width="160" height="19" as="geometry"/>
                </mxCell>
            </root>
        </mxGraphModel>
    </diagram>
</mxfile>